<?xml version="1.0" encoding="utf-8"?>
<!-- Generator: Adobe Illustrator 18.1.0, SVG Export Plug-In . SVG Version: 6.00 Build 0)  -->
<svg version="1.1" id="Layer_1" xmlns="http://www.w3.org/2000/svg" xmlns:xlink="http://www.w3.org/1999/xlink" x="0px" y="0px"
	 viewBox="-22 250.1 566.9 263" enable-background="new -22 250.1 566.9 263" xml:space="preserve">
<g>
	<path fill="#FFFFFF" d="M506.7,467.1c-2-2.1-4.9-3.6-5.9-6.3c-1.8-4.2-0.9-9.8-5-12.7c-3.7-0.8-8.1,0.1-10.9-2.8
		c-1.5-1.4-2.2-3.5-1.6-5.5c2.3-5,3.8-10.8,2.6-16.9c0.2-2-2.3-4.1,0-5.7c7,1.9,16.3,2.6,22.6-1.4c5.8-3.9,9.9-9.8,9.5-17.1
		c-1.5-10-8.4-18-16.4-25.2c-1-0.9-1.8-1.8-1.8-3.1c0.2-0.8,0.3-1.7,1.1-2c4.2-0.3,8.3-0.8,11.9-2.6c6.4-3.5,8.1-10.5,7.1-17.5
		c-0.3-0.4-0.2-1.3-1-1.2c-1.8,1.9-3.8,2.9-6,3.8c-8.1,1.1-15.7,3.2-21.6,9.5c-2,2.5-2.2,7-0.6,9.7c5,9.5,16.6,15.3,19.2,25.8
		c1.5,4.5-0.5,8.6-3.9,11.5c-5.3,3.3-12.8,2.7-18.1,0c-12.6-6.4-23.1-17.7-37-20.8c-8.1-1-14.9-4.9-21-10.5c-5.2-4-12-4.6-18-6.7
		c-5.5-5.8-12.1-9.2-19-11.9c-3.9-1.7-8.8-1.2-12.1-4.4c-2.2-3.3-5.5-6.2-8.7-8.3c-4.8-2.8-11.8-5-17.1-2c-0.4,0.4-0.8,0.7-1.3,1
		c-10.8-18.1-26.7-32.9-45.7-42.3v-47.3l-72,15.1v23.4c-29.6,6.6-54.8,25.1-70,50.3c-3.6-0.1-7.3,0.6-10.2,2.3
		c-8.4,7.4-18.9,10-28.7,14c-5.5,2.7-8.9,8.9-14.4,11.5c-7.5-0.1-14.2,1.8-19.6,6.7c-4.5,5.3-9.9,9.3-16.3,10.5
		c-11.4,0.3-20.8,5.3-29,13.3c-8,5.1-15.9,11.9-26.4,9.7c-4-1.1-7.7-4.7-9.1-8.5c-2.5-8.2,2.6-15,8.7-20.2
		c5.8-5.2,14.1-10.5,12.3-19.4c-1.4-7.5-9.7-9-15.9-10.3c-6.3-0.1-11.2-3.7-16.2-6.7c-1.2,1.9-1.6,4-1.4,6.3
		c0.5,5.8,5.3,11.9,10.9,13.7c3.7,2.1,8.7-0.9,12.1,1.8c1,1,0.6,2,0.4,3.2c-6.9,7-17.3,13.8-19,23.6c-1.4,7.8,1.4,15.2,7.5,20.2
		c6.6,5.1,17.4,6.3,25.2,2.8c0.9-0.4,2.2-0.3,2.8,0.8l0.8,10.7c0.4,5,4.4,8.7,3.8,13.9c-2.5,2.8-5.9,4.1-8.9,6l-7.9,0.8
		c-2.2,1.7-3.1,4.4-3.8,6.9c-0.3,5.7-6.7,9.2-10.9,11.9c-1.5,2.9-4.1,6.9-7.9,6.7c-2.7,3-2.8,7.1-3.8,10.9c3.6,0.4,7,1.8,10.9,1
		c4.7-1,5.3-6.2,7.9-9.3c3.1-3.2,7.3,0.4,10.7-0.8c4.4-2.2,8.6-4.8,12.3-8.9c8.3-4.2,17.8,2.5,25.8-2c3.5-4.1,9.4-3.4,12.1-8.5
		c1.5-3.9,4.4-7.3,5-11.5c-0.8-0.8-1.6-1.8-2.8-2c-0.9,1.8-2.1,3.5-3.2,5.2c-5,8.3-14,10.8-22.8,11.7c-11.7-0.3-22.3,2.1-29.9,11.7
		h-0.8c-0.5-0.2-0.8-0.4-1-1c4-7.1,11.3-12.2,19-13.3c12.2-1.2,25.8-1.5,32.5-13.5c4.3-6.4,3-15.1,4.9-22.6c0.1-0.9,0.7-1.6,1.6-1.6
		c0.5,0.2,1.2,0.4,1.4,1c-0.9,6.1-1.2,12.8,1,18.4c3.8,5,11.2,2.3,16.3,1.4c9.5-2,18,3,27.7,1c1.1-0.5,2-1.1,1.6-2.6
		c-0.4-2.1-1.7-3.9-1.2-6.3c0.3-0.7,1-1.2,1.8-1.2c1.5,0.8,1.2,2.7,1.8,4c3.8,11.3,20.4,10.6,21.4,23.8c-1.5,4.8-6.6,6.7-10.9,7.7
		c-7.9,1.8-9.6-7.8-14.1-11.9c-3.9-2.4-9.1-0.6-13.2,0c-1.1,0.4-1.4,1.5-1.2,2.6l4.7,7.7c1.7,3.7,6.4-0.7,8.3,3
		c1.8,4,5.7,8.8,10.5,8.9c7.3-1.5,13.7-4.7,20.4-7.5c2.6-3.3,7.5-0.9,10.7-2.8c1-0.4,1.7-1.2,2.3-2.2c20,26.3,51.6,43.3,87.1,43.3
		c36.6,0,69.1-18.1,89-45.8c0.1,0.6,0.3,1.1,0.4,1.7c0.9,4.1,5.2,1.5,7.9,2.8c3.6,5.4,9.9,5.1,15.1,7.1c3.7,1.2,7.3,3.3,11.5,2.8
		c4-1.2,6.4-5.4,6.7-9.3c1.3-1.9,4.5-0.2,5.9-2.2c1.8-2.7,4.1-5.1,5.2-8.1c-1.7-2.4-5.2-1.2-7.7-1.8c-0.6,0.3-1.7,0.2-2.2,0.2
		l-0.2-0.2c-5.7-0.4-5.8,6.2-8.7,9.3c-1.1,1.3-2.8,1.1-4.4,1.4c-4.7-1.7-11.9-2.4-12.3-8.9c1.8-3.8,5.9-7.3,9.3-9.9
		c3.8-0.8,7.3-2.8,9.9-6.3c2-1.8,1.2-5.9,4.7-6c1.6,2.5,0,5.8-1.2,8.1c6.7,0.8,13.1-0.3,19.3-1.4c9.4-2.3,18.3,2.9,27.3-0.6
		c4.6-2.3,4.9-7.4,5.4-11.9l-0.2-0.2l0.2-0.2c0-2.4-0.7-4.5-1-6.8c-0.1-1-0.6-2.4,0.2-3.4c0.7-0.4,1.2-0.3,1.8,0.2
		c3.8,8.4,2,19.1,6.7,27.1c3.3,6.8,10,11.7,17.4,12.1c0.3,0,0.6-0.4,0.8,0c12-2.4,22.4,2.4,29.5,11.5v0.6c-0.4,0.4-0.8,1-1.6,0.8
		c-1.3-1.7-3.1-2.4-4.6-4c-6.6-6.4-16.2-6.8-25.4-5.7c-9.5,0.3-18.3-7.7-21.6-16.1c-0.8-0.8-0.7-2.7-2.2-2.6
		c-0.4,0.3-0.6,0.8-0.8,1.2c0.6,6.2,1.4,12.2,5.7,16.8c4.1,2,7.3,6.1,11.9,6.6c6.5-1.6,14.2-0.9,20,1.8c4.6,1.8,8.3,5.7,12.5,8.5
		c2.4,1.1,5.5,0.6,7.5-1c5.3-1.4,6.1,4.9,9.7,7.3c3,2.3,7.4,1.3,11.3,1.5l0.6-0.4c-0.5-3.6-1.3-7.2-2.8-10.3
		C511.8,475.4,509.3,470.4,506.7,467.1 M357.4,364c1.2,0,2.5-0.1,3,1.2c0.7,2.3-2.1,3.8-3.5,5.4c-4.9,3.7-9.3,8.7-11.9,13.7h-0.4
		C344.1,375.8,350.3,368.5,357.4,364 M243.1,285.8l58.1-11.7l0,24.3c-12.8-5.3-26.8-8.2-41.5-8.2c-5.7,0-11.2,0.4-16.6,1.3
		L243.1,285.8z M169.1,372.3c0.7-0.1,1.5-0.4,2.2,0c2,1.4,2.8,3.6,3.8,5.6c1.1,3.7,1.5,8.4,0.4,12.3l-0.6,0.4
		c-0.6-0.9-0.6-2.1-0.8-3.2c-0.8-4.7-2.9-8.9-5.5-12.9C168.5,373.7,168.5,372.9,169.1,372.3 M365.3,439.9l-7.9,10.7l-1.1,2.4
		c-1.1,2.3-0.4,5.6-0.6,8.1c-1.9-1-2.1-3.5-2.8-5.4c-1.8-7.7,5.7-11.9,8.3-18c-1.7-0.7-3.2-1.8-5.1-2c-4,4.9-6.4,10.4-9.5,15.7
		c-0.2,1.8,0,3.4,0.3,5c-18.6,28.4-50.7,47.2-87.1,47.2c-34.6,0-65.3-17-84.2-43c1.3-2.4,2.7-4.7,2.3-7.8c-0.1-4.1-4-6.7-5.4-10.3
		c-0.8-1.9-1.5-3.9-2.6-5.5c-2.1-0.8-4.9-1.8-6.9-0.2c2.6,5.5,5.9,10.6,8.5,16c0.6,4.5-1.9,8.3-5,11.5c-0.4,0.5-1.1,0.1-1.4-0.4
		c1-3.3,2.3-6.6,2-10.1c-3.1-6-7.2-11.6-10.3-17.7c0.1-1.1,0.4-2.3,1.6-2.8c3.1-1.5,7.1-0.9,9.5-3.6c2.9-5,5-10.5,5.5-16.4
		c0.4-0.3,0.7-0.8,1.2-0.6c0.6,0.4,0.6,0.9,0.8,1.4c1.2,6.7-0.8,12.6-3.8,17.8c-0.4,0.6,0,1.3,0.4,1.8c2.2,1,4.6-0.2,6.7-0.4
		c4.1-2.9,9.9-1.6,14.5-3.4c0,0.5,0.8,0.6,0.6,1.1c-2.3,2.5-3.3,5.7-3.9,8.9c-2.7,3.1-6.9,5.6-6.9,9.9c0.7,1.8,2.3,0,3.4,0
		c0.8,0,1.2,0.8,1,1.5c-1.1,2-3.2,3.5-3.2,6c1.1,2.6,0,6.7,3.6,7.7c8.2,1.5,14.1-5.1,22.4-4.7c6.3,1.6,11.7-1.3,15.9-6
		c1.2-0.6,2.1,0.3,3.2,0.6c4.5,4.7,9.7,7.6,15.7,8.5c1.9,0.3,4.2,0.4,5.9-0.2c0.4-0.4,0.1-1.2-0.2-1.6c-4.4-1.7-8.8-4.2-12.1-8.3
		c-1.9-5.1-4.3-10.1-8.1-14.5c-0.3-0.3-0.3-1,0.2-1.2c4.3,1,7.8,5.3,9.7,9.1c3.5,5.3,8.6,9.7,15.2,9.1c0.8-0.2,2-0.1,1.8-1.4
		c-10.1-3.1-11.7-14.1-19.6-20c-3.8-9.6-7.3-19.3-9.1-29.7c-0.3-9.5-5.6-17-11.5-24.2c-9.3-14.1-23.9-22.1-36-32.5l-4-2.2
		c-1.6-0.9-3.3-1.7-5.2-2.2c14.4-22.7,37.3-39.5,64.3-45.7v34.9c-1.8-0.8-2.6-0.8-3.9-0.8c-12.2,0-23,11.4-23,19
		c0,5.1,4.1,8.1,9.5,8.1c6,0,13.2-3.1,18.5-8.7c4.2-4.5,5.7-8.9,5.7-16.9l0.1-36.9c5.4-0.9,11-1.3,16.7-1.3
		c14.7,0,28.8,3.1,41.5,8.6l0,13.9c-1.8-0.8-2.6-0.8-3.9-0.8c-12.2,0-22.9,11.4-22.9,19c0,5.2,4.1,8.1,9.5,8.1
		c6,0,13.2-3.1,18.5-8.7c4.2-4.5,5.7-8.9,5.7-16.9v-11.2c17.2,9.1,31.6,22.9,41.5,39.7c-13.4,10.3-27.7,18.2-40.3,30.1
		c-8.5,7.9-13,17.4-15.7,27.8c-6.3,18.1-7.8,39.9-26.9,50.9c-0.1,0.6,0.1,1,0.6,1.4c4.3,0.9,8.9-0.1,11.9-3.8
		c2.9-4.6,6.4-8.9,10.5-12.9h0.8c1.5,0.3,0.3,1.6,0.4,2.4c-5.8,5.5-5.9,13.7-13.5,18c-0.8,0.7-3.1,2-1.5,3.2
		c8.5,0.9,14.7-5.4,20.6-10.7l1.2-0.2c3.4,2.1,5.9,6.6,10.3,5.5c8.8-2.4,14.8,3.1,22,5.4c2.1,0.9,3.7-0.7,5.2-2
		c3.1-2.2,1.5-6.1,1.4-9.1l0.6-0.6c1.5-0.2,3.3,1.2,4.4-0.4c0.5-4-2.9-6.8-4.6-10.1c-0.9-6.5-8.4-10.3-9.5-16.7
		c0.4-0.3,0.6-0.7,1-0.8c3,1.8,5.5,4.7,8.5,6.5c4.6,2.3,10.1,2.2,15.5,2.4c0.8-0.2,0.8-1,0.8-1.8c-2.8-6.3-5.2-12.9-4.7-20.6
		c0.5-2.4-0.5-5.9,2.4-6.7c0.7,0.2,0.8,1,1.2,1.4c0.4,6.9,0.5,14,3.6,19.8c1.7,4.2,6.1,6.6,9.5,9.1
		C365.7,436.3,366.1,438.4,365.3,439.9 M215.1,415.7c-1-0.5-2.2-0.4-3.1,0.4l-3.2,3.8c-1.1-0.5-0.5-2.2-0.4-3.1
		c1.1-2.9,2.7-5.6,3.8-8.5c0.5-0.9,1.8-0.6,2.6-0.4c3.1,2,3.7,5.7,6.7,7.9c2.4,3.2,3.9,8.1,1.8,11.9c-0.6,0-1.4,0.8-1.8,0
		C221.9,422.6,219,418.6,215.1,415.7 M208.4,447.8c1.7-1.5,3.4-3.5,5.9-2.4l0.4,1.6c0.3,1.5-0.4,2.7-1,3.8c-2.1,0.6-4.3,1.5-6.6,0.8
		C206.6,450.2,208,449.1,208.4,447.8 M317,418.7c-0.4-0.5-0.6-1.3-1.4-1.5c-2.9-0.7-5,1.7-7.1,3.4c-3.5,2.1-4.5,5.7-5.4,9.1
		c-0.2,0.6-0.9,0.3-1.4,0.4c-1.8-1.8,0-4,0-6c1.8-6,8.6-9.4,11.9-14.8c3.5-0.1,3.9,3.9,5.6,5.9c0.4,1.7,2.6,3.8,0.4,5.4
		C318.4,420.7,317.3,419.7,317,418.7 M317.2,451.6c-1.5,0.5-3,0-4.4-0.2c-1.7-0.9-1.7-2.8-2.2-4.4c0.4-0.5,0.1-1.5,0.8-1.8
		c2,0.1,3.9,0.9,5.1,2.4C317.1,448.9,318.2,450.3,317.2,451.6 M149.3,461c0.3-1-0.5-1.5-0.8-2.2c-1-2-1.4-4.1-2.6-5.9
		c-2.5-0.1-5.4,0.1-7.9,0.6l-0.2-0.2c-0.7,0.4-1.6,0.1-2.4,0.2c-0.4,0.3-0.6,0.7-0.6,1.2c3.4,2,4.3,5.8,6.2,8.9
		C144,465.1,146.9,462.7,149.3,461 M381.8,454c-1.1-0.1-2.4,0.1-3.2,0l-0.2,0.2c-1.4-0.4-3.2,0.1-4.6-0.4c-1.5,2-2.5,4.3-2,6.9
		c0.9,1.6,2.8,1.6,4.2,2.4c1.5,0.1,3.7,0.8,4.8-0.6c1.1-2.5,1.9-5.1,2.4-7.9C382.8,454.1,382.4,453.9,381.8,454 M2.2,470.8
		c2.2,0.9,3.9-0.5,5.4-2c1.2-2,3.2-3.8,3.5-6.2c-0.6-1.5-2.5-2.9-3.9-2c-2.1,3.4-8.8,3.3-6.9,8.5C0.9,469.8,1.4,470.7,2.2,470.8
		 M514.1,460.6l-1.4-0.2c-0.9,0.9-3.1,1.4-2.6,3.2c2,2.7,3.5,7.3,7.4,7.7c1.3-0.6,2.9-0.9,3.5-2.4c0.2-1,0.7-1.9,0-2.8L514.1,460.6z
		 M-5.3,472c-2.8,1.7-2.7,4.9-2.6,7.9c0,1.9-2.3,2.9-2,5c2.1,0.7,4,1.9,6.3,2c1.3-3.9,2.1-7.9,3.2-11.9l-3.6-3.5
		C-4.5,471.5-4.9,471.8-5.3,472 M528.7,474.8c-0.7-1.1-1.6-2.3-2.8-3c-2-1-3.2,1.4-4.3,2.6c-0.3,3,1.2,5.8,1.8,8.7
		c0.4,1.4-0.1,3.3,1.2,4.2l5.9-1.8l0.2-1.6C528.3,481.6,529.7,477.7,528.7,474.8"/>
</g>
</svg>
