<?xml version="1.0" encoding="utf-8"?>
<!-- Generator: Adobe Illustrator 18.1.0, SVG Export Plug-In . SVG Version: 6.00 Build 0)  -->
<svg version="1.1" id="Layer_1" xmlns="http://www.w3.org/2000/svg" xmlns:xlink="http://www.w3.org/1999/xlink" x="0px" y="0px"
	 viewBox="0 0 612 280" enable-background="new 0 0 612 280" xml:space="preserve">
<g>
	<path d="M571.9,229.8c-2.2-2.3-5.3-3.9-6.4-6.8c-1.9-4.5-1-10.6-5.4-13.7c-4-0.9-8.7,0.1-11.8-3c-1.6-1.5-2.4-3.8-1.7-5.9
		c2.5-5.4,4.1-11.7,2.8-18.2c0.2-2.2-2.5-4.4,0-6.2c7.6,2.1,17.6,2.8,24.4-1.5c6.3-4.2,10.7-10.6,10.3-18.5
		c-1.6-10.8-9.1-19.4-17.7-27.2c-1.1-1-1.9-1.9-1.9-3.3c0.2-0.9,0.3-1.8,1.2-2.2c4.5-0.3,9-0.9,12.8-2.8c6.9-3.8,8.7-11.3,7.7-18.9
		c-0.3-0.4-0.2-1.4-1.1-1.3c-1.9,2.1-4.1,3.1-6.5,4.1c-8.7,1.2-16.9,3.5-23.3,10.3c-2.2,2.7-2.4,7.6-0.6,10.5
		c5.4,10.3,17.9,16.5,20.7,27.9c1.6,4.9-0.5,9.3-4.2,12.4c-5.7,3.6-13.8,2.9-19.5,0c-13.6-6.9-24.9-19.1-39.9-22.5
		c-8.7-1.1-16.1-5.3-22.7-11.3c-5.6-4.3-13-5-19.4-7.2c-5.9-6.3-13.1-9.9-20.5-12.8c-4.2-1.8-9.5-1.3-13.1-4.8
		c-2.4-3.6-5.9-6.7-9.4-9c-5.2-3-12.7-5.4-18.5-2.2c-0.4,0.4-0.9,0.8-1.4,1.1c-11.7-19.5-28.8-35.5-49.3-45.7V0l-77.7,16.3v25.3
		c-32,7.1-59.2,27.1-75.6,54.3c-3.9-0.1-7.9,0.6-11,2.5c-9.1,8-20.4,10.8-31,15.1c-5.9,2.9-9.6,9.6-15.5,12.4
		c-8.1-0.1-15.3,1.9-21.2,7.2c-4.9,5.7-10.7,10-17.6,11.3c-12.3,0.3-22.5,5.7-31.3,14.4c-8.6,5.5-17.2,12.8-28.5,10.5
		c-4.3-1.2-8.3-5.1-9.8-9.2c-2.7-8.9,2.8-16.2,9.4-21.8c6.3-5.6,15.2-11.3,13.3-20.9c-1.5-8.1-10.5-9.7-17.2-11.1
		c-6.8-0.1-12.1-4-17.5-7.2c-1.3,2.1-1.7,4.3-1.5,6.8c0.5,6.3,5.7,12.8,11.8,14.8c4,2.3,9.4-1,13.1,1.9c1.1,1.1,0.6,2.2,0.4,3.5
		c-7.4,7.6-18.7,14.9-20.5,25.5c-1.5,8.4,1.5,16.4,8.1,21.8c7.1,5.5,18.8,6.8,27.2,3c1-0.4,2.4-0.3,3,0.9l0.9,11.6
		c0.4,5.4,4.8,9.4,4.1,15c-2.7,3-6.4,4.4-9.6,6.5l-8.5,0.9c-2.4,1.8-3.3,4.8-4.1,7.4c-0.3,6.2-7.2,9.9-11.8,12.8
		c-1.6,3.1-4.4,7.4-8.5,7.2c-2.9,3.2-3,7.7-4.1,11.8c3.9,0.4,7.6,1.9,11.8,1.1c5.1-1.1,5.7-6.7,8.5-10c3.3-3.5,7.9,0.4,11.6-0.9
		c4.8-2.4,9.3-5.2,13.3-9.6c9-4.5,19.2,2.7,27.9-2.2c3.8-4.4,10.1-3.7,13.1-9.2c1.6-4.2,4.8-7.9,5.4-12.4c-0.9-0.9-1.7-1.9-3-2.2
		c-1,1.9-2.3,3.8-3.5,5.6c-5.4,9-15.1,11.7-24.6,12.6c-12.6-0.3-24.1,2.3-32.3,12.6h-0.9c-0.5-0.2-0.9-0.4-1.1-1.1
		c4.3-7.7,12.2-13.2,20.5-14.4c13.2-1.3,27.9-1.6,35.1-14.6c4.6-6.9,3.2-16.3,5.3-24.4c0.1-1,0.8-1.7,1.7-1.7
		c0.5,0.2,1.3,0.4,1.5,1.1c-1,6.6-1.3,13.8,1.1,19.9c4.1,5.4,12.1,2.5,17.6,1.5c10.3-2.2,19.4,3.2,29.9,1.1c1.2-0.5,2.2-1.2,1.7-2.8
		c-0.4-2.3-1.8-4.2-1.3-6.8c0.3-0.8,1.1-1.3,1.9-1.3c1.6,0.9,1.3,2.9,1.9,4.3c4.1,12.2,22,11.4,23.1,25.7c-1.6,5.2-7.1,7.2-11.8,8.3
		c-8.5,1.9-10.4-8.4-15.2-12.8c-4.2-2.6-9.8-0.6-14.3,0c-1.2,0.4-1.5,1.6-1.3,2.8l5.1,8.3c1.8,4,6.9-0.8,9,3.2
		c1.9,4.3,6.2,9.5,11.3,9.6c7.9-1.6,14.8-5.1,22-8.1c2.8-3.6,8.1-1,11.6-3c1.1-0.4,1.8-1.3,2.5-2.4c21.6,28.4,55.7,46.7,94,46.7
		c39.5,0,74.6-19.5,96.1-49.4c0.1,0.6,0.3,1.2,0.4,1.8c1,4.4,5.6,1.6,8.5,3c3.9,5.8,10.7,5.5,16.3,7.7c4,1.3,7.9,3.6,12.4,3
		c4.3-1.3,6.9-5.8,7.2-10c1.4-2.1,4.9-0.2,6.4-2.4c1.9-2.9,4.4-5.5,5.6-8.7c-1.8-2.6-5.6-1.3-8.3-1.9c-0.6,0.3-1.8,0.2-2.4,0.2
		l-0.2-0.2c-6.2-0.4-6.3,6.7-9.4,10c-1.2,1.4-3,1.2-4.8,1.5c-5.1-1.8-12.8-2.6-13.3-9.6c1.9-4.1,6.4-7.9,10-10.7
		c4.1-0.9,7.9-3,10.7-6.8c2.2-1.9,1.3-6.4,5.1-6.5c1.7,2.7,0,6.3-1.3,8.7c7.2,0.9,14.1-0.3,20.8-1.5c10.1-2.5,19.8,3.1,29.5-0.6
		c5-2.5,5.3-8,5.8-12.8l-0.2-0.2l0.2-0.2c0-2.6-0.8-4.9-1.1-7.3c-0.1-1.1-0.6-2.6,0.2-3.7c0.8-0.4,1.3-0.3,1.9,0.2
		c4.1,9.1,2.2,20.6,7.2,29.3c3.6,7.3,10.8,12.6,18.8,13.1c0.3,0,0.6-0.4,0.9,0c13-2.6,24.2,2.6,31.8,12.4v0.6
		c-0.4,0.4-0.9,1.1-1.7,0.9c-1.4-1.8-3.3-2.6-5-4.3c-7.1-6.9-17.5-7.3-27.4-6.2c-10.3,0.3-19.8-8.3-23.3-17.4
		c-0.9-0.9-0.8-2.9-2.4-2.8c-0.4,0.3-0.6,0.9-0.9,1.3c0.6,6.7,1.5,13.2,6.2,18.1c4.4,2.2,7.9,6.6,12.8,7.1c7-1.7,15.3-1,21.6,1.9
		c5,1.9,9,6.2,13.5,9.2c2.6,1.2,5.9,0.6,8.1-1.1c5.7-1.5,6.6,5.3,10.5,7.9c3.2,2.5,8,1.4,12.2,1.6l0.6-0.4c-0.5-3.9-1.4-7.8-3-11.1
		C577.4,238.8,574.7,233.4,571.9,229.8 M410.7,118.5c1.3,0,2.7-0.1,3.2,1.3c0.8,2.5-2.3,4.1-3.8,5.8c-5.3,4-10,9.4-12.8,14.8h-0.4
		C396.4,131.3,403.1,123.4,410.7,118.5 M287.3,34.1l62.7-12.6v26.2c-13.8-5.7-28.9-8.9-44.8-8.9c-6.2,0-12.1,0.4-17.9,1.4V34.1z
		 M207.5,127.5c0.8-0.1,1.6-0.4,2.4,0c2.2,1.5,3,3.9,4.1,6c1.2,4,1.6,9.1,0.4,13.3l-0.6,0.4c-0.6-1-0.6-2.3-0.9-3.5
		c-0.9-5.1-3.1-9.6-5.9-13.9C206.8,129,206.8,128.1,207.5,127.5 M419.3,200.5l-8.5,11.6l-1.2,2.6c-1.2,2.5-0.4,6-0.6,8.7
		c-2.1-1.1-2.3-3.8-3-5.8c-1.9-8.3,6.2-12.8,9-19.4c-1.8-0.8-3.5-1.9-5.5-2.2c-4.3,5.3-6.9,11.2-10.3,16.9c-0.2,1.9,0,3.7,0.3,5.4
		c-20.1,30.7-54.7,51-94,51c-37.4,0-70.5-18.4-90.9-46.4c1.4-2.6,2.9-5.1,2.5-8.4c-0.1-4.4-4.3-7.2-5.8-11.1
		c-0.9-2.1-1.6-4.2-2.8-5.9c-2.3-0.9-5.3-1.9-7.4-0.2c2.8,5.9,6.4,11.4,9.2,17.3c0.6,4.9-2.1,9-5.4,12.4c-0.4,0.5-1.2,0.1-1.5-0.4
		c1.1-3.6,2.5-7.1,2.2-10.9c-3.3-6.5-7.8-12.5-11.1-19.1c0.1-1.2,0.4-2.5,1.7-3c3.3-1.6,7.7-1,10.3-3.9c3.1-5.4,5.4-11.3,5.9-17.7
		c0.4-0.3,0.8-0.9,1.3-0.6c0.6,0.4,0.6,1,0.9,1.5c1.3,7.2-0.9,13.6-4.1,19.2c-0.4,0.6,0,1.4,0.4,1.9c2.4,1.1,5-0.2,7.2-0.4
		c4.4-3.1,10.7-1.7,15.7-3.7c0,0.5,0.9,0.6,0.6,1.2c-2.5,2.7-3.6,6.2-4.2,9.6c-2.9,3.3-7.4,6-7.4,10.7c0.8,1.9,2.5,0,3.7,0
		c0.9,0,1.3,0.9,1.1,1.6c-1.2,2.2-3.5,3.8-3.5,6.5c1.2,2.8,0,7.2,3.9,8.3c8.9,1.6,15.2-5.5,24.2-5.1c6.8,1.7,12.6-1.4,17.2-6.5
		c1.3-0.6,2.3,0.3,3.5,0.6c4.9,5.1,10.5,8.2,16.9,9.2c2.1,0.3,4.5,0.4,6.4-0.2c0.4-0.4,0.1-1.3-0.2-1.7c-4.8-1.8-9.5-4.5-13.1-9
		c-2.1-5.5-4.6-10.9-8.7-15.7c-0.3-0.3-0.3-1.1,0.2-1.3c4.6,1.1,8.4,5.7,10.5,9.8c3.8,5.7,9.3,10.5,16.4,9.8
		c0.9-0.2,2.2-0.1,1.9-1.5c-10.9-3.3-12.6-15.2-21.2-21.6c-4.1-10.4-7.9-20.8-9.8-32.1c-0.3-10.3-6-18.4-12.4-26.1
		c-10-15.2-25.8-23.9-38.9-35.1l-4.3-2.4c-1.7-1-3.6-1.8-5.6-2.4C226.1,72,250.8,53.9,280,47.2v37.7c-1.9-0.9-2.8-0.9-4.2-0.9
		c-13.2,0-24.8,12.3-24.8,20.5c0,5.5,4.4,8.7,10.3,8.7c6.5,0,14.3-3.3,20-9.4c4.5-4.9,6.2-9.6,6.2-18.2l0.1-39.8
		c5.8-1,11.9-1.4,18-1.4c15.9,0,31.1,3.3,44.8,9.3v15c-1.9-0.9-2.8-0.9-4.2-0.9c-13.2,0-24.7,12.3-24.7,20.5c0,5.6,4.4,8.7,10.3,8.7
		c6.5,0,14.3-3.3,20-9.4c4.5-4.9,6.2-9.6,6.2-18.2V57.3c18.6,9.8,34.1,24.7,44.8,42.9c-14.5,11.1-29.9,19.6-43.5,32.5
		c-9.2,8.5-14,18.8-16.9,30c-6.8,19.5-8.4,43.1-29,54.9c-0.1,0.6,0.1,1.1,0.6,1.5c4.6,1,9.6-0.1,12.8-4.1c3.1-5,6.9-9.6,11.3-13.9
		h0.9c1.6,0.3,0.3,1.7,0.4,2.6c-6.3,5.9-6.4,14.8-14.6,19.4c-0.9,0.8-3.3,2.2-1.6,3.5c9.2,1,15.9-5.8,22.2-11.6l1.3-0.2
		c3.7,2.3,6.4,7.1,11.1,5.9c9.5-2.6,16,3.3,23.8,5.8c2.3,1,4-0.8,5.6-2.2c3.3-2.4,1.6-6.6,1.5-9.8l0.6-0.6c1.6-0.2,3.6,1.3,4.8-0.4
		c0.5-4.3-3.1-7.3-5-10.9c-1-7-9.1-11.1-10.3-18c0.4-0.3,0.6-0.8,1.1-0.9c3.2,1.9,5.9,5.1,9.2,7c5,2.5,10.9,2.4,16.7,2.6
		c0.9-0.2,0.9-1.1,0.9-1.9c-3-6.8-5.6-13.9-5.1-22.2c0.5-2.6-0.5-6.4,2.6-7.2c0.8,0.2,0.9,1.1,1.3,1.5c0.4,7.4,0.5,15.1,3.9,21.4
		c1.8,4.5,6.6,7.1,10.3,9.8C419.7,196.6,420.1,198.9,419.3,200.5 M257.1,174.3c-1.1-0.5-2.4-0.4-3.3,0.4l-3.5,4.1
		c-1.2-0.5-0.5-2.4-0.4-3.3c1.2-3.1,2.9-6,4.1-9.2c0.5-1,1.9-0.6,2.8-0.4c3.3,2.2,4,6.2,7.2,8.5c2.6,3.5,4.2,8.7,1.9,12.8
		c-0.6,0-1.5,0.9-1.9,0C264.5,181.8,261.3,177.5,257.1,174.3 M249.9,209c1.8-1.6,3.7-3.8,6.4-2.6l0.4,1.7c0.3,1.6-0.4,2.9-1.1,4.1
		c-2.3,0.6-4.6,1.6-7.1,0.9C247.9,211.6,249.4,210.4,249.9,209 M367.1,177.6c-0.4-0.5-0.6-1.4-1.5-1.6c-3.1-0.8-5.4,1.8-7.7,3.7
		c-3.8,2.3-4.9,6.2-5.8,9.8c-0.2,0.6-1,0.3-1.5,0.4c-1.9-1.9,0-4.3,0-6.5c1.9-6.5,9.3-10.1,12.8-16c3.8-0.1,4.2,4.2,6,6.4
		c0.4,1.8,2.8,4.1,0.4,5.8C368.6,179.7,367.4,178.7,367.1,177.6 M367.3,213.1c-1.6,0.5-3.2,0-4.8-0.2c-1.8-1-1.8-3-2.4-4.8
		c0.4-0.5,0.1-1.6,0.9-1.9c2.2,0.1,4.2,1,5.5,2.6C367.2,210.2,368.4,211.7,367.3,213.1 M186.1,223.3c0.3-1.1-0.5-1.6-0.9-2.4
		c-1.1-2.2-1.5-4.4-2.8-6.4c-2.7-0.1-5.8,0.1-8.5,0.6l-0.2-0.2c-0.8,0.4-1.7,0.1-2.6,0.2c-0.4,0.3-0.6,0.8-0.6,1.3
		c3.7,2.2,4.6,6.3,6.7,9.6C180.4,227.7,183.5,225.1,186.1,223.3 M437.1,215.7c-1.2-0.1-2.6,0.1-3.5,0l-0.2,0.2
		c-1.5-0.4-3.5,0.1-5-0.4c-1.6,2.2-2.7,4.6-2.2,7.4c1,1.7,3,1.7,4.5,2.6c1.6,0.1,4,0.9,5.2-0.6c1.2-2.7,2.1-5.5,2.6-8.5
		C438.2,215.8,437.7,215.6,437.1,215.7 M27.3,233.8c2.4,1,4.2-0.5,5.8-2.2c1.3-2.2,3.5-4.1,3.8-6.7c-0.6-1.6-2.7-3.1-4.2-2.2
		c-2.3,3.7-9.5,3.6-7.4,9.2C25.9,232.8,26.4,233.7,27.3,233.8 M579.9,222.8l-1.5-0.2c-1,1-3.3,1.5-2.8,3.5c2.2,2.9,3.8,7.9,8,8.3
		c1.4-0.6,3.1-1,3.8-2.6c0.2-1.1,0.8-2.1,0-3L579.9,222.8z M19.2,235.1c-3,1.8-2.9,5.3-2.8,8.5c0,2.1-2.5,3.1-2.2,5.4
		c2.3,0.8,4.3,2.1,6.8,2.2c1.4-4.2,2.3-8.5,3.5-12.8l-3.9-3.8C20,234.6,19.6,234.9,19.2,235.1 M595.7,238.1c-0.8-1.2-1.7-2.5-3-3.2
		c-2.2-1.1-3.5,1.5-4.6,2.8c-0.3,3.2,1.3,6.3,1.9,9.4c0.4,1.5-0.1,3.6,1.3,4.5l6.4-1.9l0.2-1.7C595.2,245.5,596.7,241.3,595.7,238.1
		"/>
</g>
</svg>
