<svg width="100px" height="48px" version="1.1" xmlns="http://www.w3.org/2000/svg" xmlns:xlink="http://www.w3.org/1999/xlink" xml:space="preserve" viewBox="0 0 100 48" style="fill-rule:evenodd;clip-rule:evenodd;stroke-linejoin:round;stroke-miterlimit:1.41421" class="ng-scope">

	<g> <g> <path d="M95.3866,40.3982C94.994,40.0056 94.5173,39.7813 94.2929,39.2204C93.9845,38.4352 94.1247,37.3977 93.3395,36.8649C92.6384,36.6966 91.8532,36.8649 91.3765,36.304C91.068,36.0797 90.9839,35.6871 91.068,35.2665C91.4606,34.313 91.7691,33.3035 91.5448,32.1818C91.6289,31.7892 91.1522,31.3966 91.5448,31.1442C92.8067,31.4527 94.5453,31.621 95.7231,30.9199C96.8167,30.2188 97.5458,29.0971 97.4617,27.7511C97.1532,25.9284 95.8913,24.4421 94.4612,23.0961C94.2929,22.9278 94.1527,22.7876 94.1527,22.5352C94.1527,22.367 94.2368,22.2268 94.377,22.1426C95.1622,22.0585 95.8633,21.9744 96.5924,21.6659C97.7702,21.049 98.0786,19.7029 97.9384,18.441C97.8543,18.3569 97.8543,18.2167 97.7702,18.2167C97.4617,18.5252 97.0691,18.7775 96.6765,18.9178C95.1903,19.1421 93.7601,19.4786 92.7225,20.6564C92.33,21.1331 92.33,21.9183 92.6384,22.4791C93.5919,24.2178 95.7231,25.3114 96.1998,27.2183C96.5083,28.0876 96.1157,28.7887 95.4987,29.3495C94.5453,29.9665 93.1432,29.8262 92.1897,29.3495C89.8903,28.1717 87.9273,26.1246 85.4035,25.4797C83.9172,25.3114 82.6553,24.6104 81.5336,23.5728C80.5802,22.8717 79.3183,22.7035 78.2246,22.3109C77.1871,21.2172 76.0093,20.6564 74.7474,20.0955C74.0463,19.7871 73.177,19.8712 72.532,19.3104C72.1394,18.6934 71.4945,18.2167 70.9617,17.8241C70.0924,17.3474 68.7463,16.8707 67.7929,17.4315C67.7088,17.5156 67.6246,17.5998 67.5685,17.5998C65.6056,14.2908 62.6892,11.5146 59.1278,9.80399L59.1278,1.11086L45.8638,3.85901L45.8638,8.20557C40.4235,9.38335 35.7685,12.8606 33.0203,17.4315C32.4034,17.4315 31.6743,17.5156 31.1135,17.8241C29.5431,19.1701 27.6362,19.6469 25.8415,20.432C24.8039,20.9088 24.187,22.0865 23.1494,22.5633C21.7193,22.5633 20.5415,22.8717 19.532,23.8252C18.6627,24.7786 17.7092,25.5638 16.5314,25.7321C14.4002,25.8162 12.7457,26.6855 11.1753,28.1717C9.6891,29.1252 8.25894,30.3871 6.35206,29.9945C5.651,29.8262 4.92189,29.1252 4.69756,28.4241C4.22084,26.9379 5.17428,25.676 6.26793,24.7225C7.36158,23.7691 8.87587,22.7596 8.5674,21.1611C8.34306,19.731 6.74465,19.5066 5.651,19.2543C4.47322,19.2543 3.6039,18.5532 2.65046,17.9924C2.42612,18.3008 2.342,18.6934 2.42612,19.1701C2.51025,20.2638 3.37956,21.3855 4.38909,21.694C5.09015,22.0865 5.95946,21.5257 6.60444,22.0024C6.77269,22.1707 6.68856,22.395 6.68856,22.5633C5.37057,23.8252 3.49173,25.0871 3.15523,26.9098C2.93089,28.34 3.37956,29.658 4.58539,30.6114C5.79121,31.5649 7.81026,31.7892 9.24042,31.1723C9.40867,31.0881 9.63301,31.0881 9.80127,31.3405L9.96952,33.3035C10.0536,34.2569 10.7547,34.8739 10.6706,35.8273C10.1939,36.3882 9.57693,36.6125 9.01608,36.921L7.58592,37.0892C7.19333,37.3977 7.02507,37.8744 6.88486,38.3511C6.80073,39.3887 5.62295,40.0056 4.92189,40.5665C4.69756,41.1273 4.13671,41.8284 3.49173,41.8284C3.01501,42.3892 2.93089,43.1744 2.79067,43.7913C3.40761,43.8755 4.05258,44.0998 4.75364,43.9596C5.62295,43.7913 5.70708,42.8659 6.1838,42.221C6.74465,41.604 7.52983,42.3051 8.14677,42.0527C8.93195,41.6601 9.71714,41.1834 10.4462,40.3982C11.9325,39.613 13.7552,40.8749 15.1854,40.0056C15.8304,39.2204 16.924,39.3887 17.4007,38.4352C17.6251,37.7342 18.1859,37.0892 18.3542,36.304C18.1859,36.1358 18.0457,35.9956 17.8775,35.9114C17.7092,36.2199 17.4849,36.5284 17.3166,36.8649C16.3632,38.3511 14.7087,38.8278 13.1383,38.9961C11.0071,38.912 9.04412,39.3887 7.61396,41.1273L7.44571,41.1273C7.36158,41.1273 7.27745,41.0432 7.27745,40.9591C7.97851,39.613 9.32455,38.6596 10.7547,38.5194C12.9701,38.295 15.4939,38.295 16.7558,36.0797C17.541,34.9019 17.3166,33.3315 17.6251,31.9014C17.6251,31.7331 17.7933,31.5929 17.9336,31.5929C18.0177,31.677 18.1579,31.677 18.1579,31.7612C17.9896,32.8548 17.9336,34.1167 18.3261,35.1543C19.0272,36.1077 20.3732,35.5469 21.3267,35.3786C23.0653,34.986 24.6357,35.9395 26.4584,35.5469C26.6267,35.4628 26.851,35.3225 26.7669,35.0702C26.6828,34.6776 26.4584,34.3691 26.5426,33.8924C26.6267,33.7241 26.7108,33.668 26.851,33.668C27.0754,33.8363 27.0754,34.1448 27.1595,34.3691C27.8606,36.4162 30.9452,36.3321 31.1135,38.7998C30.8891,39.6691 29.9357,40.0617 29.1505,40.23C27.7203,40.5384 27.4119,38.7998 26.5426,38.0146C25.8415,37.5379 24.8881,37.9305 24.1029,38.0146C23.9346,38.0987 23.8785,38.2389 23.8785,38.4913L24.7478,39.9215C25.0563,40.6226 25.9256,39.7532 26.2341,40.4823C26.5426,41.1834 27.2717,42.0527 28.141,42.1368C29.487,41.8284 30.6648,41.2675 31.9267,40.7067C32.4034,40.0897 33.2727,40.5384 33.8897,40.1458C34.0579,40.0617 34.1981,39.9215 34.2823,39.7532C37.9838,44.5765 43.7606,47.7173 50.2944,47.7173C56.9966,47.7173 62.9976,44.4083 66.6992,39.2765C66.6992,39.3606 66.7834,39.5009 66.7834,39.585C66.9516,40.3702 67.7368,39.8934 68.2696,40.1458C68.8865,41.1834 70.0924,41.0993 71.0178,41.4919C71.7188,41.7162 72.3638,42.1088 73.149,42.0527C73.85,41.8284 74.3268,41.0151 74.4109,40.3141C74.6352,40.0056 75.1961,40.23 75.5045,39.9215C75.813,39.4448 76.2897,38.9681 76.458,38.4352C76.1495,37.9585 75.5045,38.2109 75.0278,38.1268C74.9437,38.2109 74.7193,38.2109 74.6352,38.2109L74.6352,38.1268C73.5977,38.0427 73.5416,39.2204 73.0648,39.8654C72.8405,40.0897 72.504,40.0897 72.2797,40.0897C71.4103,39.7813 70.0643,39.6972 69.9802,38.4352C70.2887,37.7342 71.0738,37.0892 71.7188,36.6125C72.4199,36.4442 73.0648,36.0516 73.5416,35.4347C73.9342,35.1262 73.7659,34.3411 74.4109,34.3411C74.7193,34.8178 74.4109,35.3786 74.1865,35.8273C75.4484,35.9956 76.6262,35.7432 77.7479,35.603C79.4865,35.2104 81.141,36.1638 82.7955,35.5188C83.6649,35.1262 83.6649,34.1728 83.8331,33.3035L83.749,33.2194L83.8331,33.2194C83.8331,32.7426 83.6649,32.3501 83.6649,31.9575C83.6649,31.7892 83.5807,31.4807 83.6649,31.3405C83.8331,31.2564 83.8892,31.2564 83.9733,31.4247C84.6744,32.995 84.3659,34.986 85.2352,36.3882C85.8522,37.6501 87.058,38.5194 88.4601,38.6035C88.5442,38.6035 88.5442,38.5194 88.6284,38.6035C90.8437,38.1268 92.7225,39.0802 94.0686,40.7347L94.0686,40.8188C93.9845,40.903 93.9003,40.9871 93.7601,40.9871C93.5358,40.6786 93.1993,40.5104 92.8908,40.286C91.713,39.1083 89.8903,39.0241 88.2358,39.2485C86.4971,39.3326 84.8426,37.8183 84.2818,36.2479C84.1135,36.0797 84.1135,35.7712 83.8892,35.7712C83.8051,35.8553 83.8051,35.9395 83.7209,35.9956C83.8051,37.0892 83.9453,38.295 84.7585,39.0802C85.5437,39.4728 86.1045,40.1739 86.9739,40.258C88.1516,39.9495 89.5818,40.0897 90.6755,40.5665C91.5448,40.8749 92.1617,41.604 92.9749,42.1368C93.3675,42.3612 94.0125,42.221 94.4051,41.9686C95.3585,41.7442 95.4987,42.8379 96.2278,43.3146C96.7887,43.7072 97.5739,43.539 98.2749,43.6231L98.3591,43.539C98.2749,42.922 98.1347,42.1929 97.8823,41.6321C96.312,41.8845 95.8633,40.9591 95.3866,40.3982M67.9331,21.3855C68.1574,21.3855 68.4098,21.3855 68.4939,21.6098C68.6622,22.0024 68.1013,22.3109 67.877,22.5633C67.0077,23.2643 66.1384,24.1336 65.6617,25.0871L65.5775,25.0871C65.4934,23.6008 66.5871,22.2548 67.9331,21.3855M46.8733,7.02779L57.6135,4.89657L57.6135,9.38335C55.2579,8.42991 52.65,7.89711 49.9579,7.89711C48.9204,7.89711 47.9108,7.98124 46.8733,8.12145ZM33.2166,22.9559C33.3849,22.9559 33.5251,22.8717 33.6092,22.9559C34.0018,23.1802 34.1701,23.5728 34.3103,23.9934C34.4785,24.6945 34.5346,25.5638 34.3944,26.2929L34.3103,26.377C34.142,26.1527 34.142,25.9003 34.142,25.7601C33.9738,24.8908 33.5812,24.1056 33.1045,23.4045C33.1325,23.2082 33.1325,23.04 33.2166,22.9559M69.3352,35.3506L67.849,37.3136L67.6246,37.7903C67.4003,38.1829 67.5405,38.8278 67.5405,39.2765C67.1479,39.1083 67.1479,38.6596 67.0638,38.2389C66.7553,36.8088 68.1013,36.0236 68.55,34.93C68.2416,34.7617 67.9892,34.6215 67.5966,34.5374C66.8955,35.4067 66.4188,36.4442 65.858,37.4538C65.7738,37.7622 65.858,38.0707 65.9421,38.4072C62.549,43.6231 56.632,47.0723 49.9299,47.0723C43.5362,47.0723 37.9278,43.9035 34.4785,39.1924C34.7029,38.7157 34.9553,38.3231 34.8711,37.7622C34.8711,36.977 34.1701,36.5003 33.9177,35.8553C33.7494,35.5469 33.6092,35.1543 33.441,34.8178C33.0484,34.6495 32.5717,34.5093 32.1791,34.8178C32.6558,35.8553 33.2727,36.7807 33.7494,37.7342C33.8336,38.6035 33.441,39.2204 32.796,39.8654C32.7119,39.9495 32.6278,39.8654 32.5717,39.7813C32.7399,39.1643 32.9643,38.6035 32.9643,37.8744C32.4034,36.7807 31.6182,35.7432 31.0574,34.6495C31.0574,34.4252 31.1415,34.2569 31.3658,34.1728C31.9267,33.8643 32.7119,34.0046 33.1045,33.5559C33.6653,32.6024 34.0579,31.649 34.142,30.5553C34.2262,30.4712 34.3103,30.3871 34.3664,30.4712C34.4505,30.5553 34.4505,30.6395 34.5346,30.6956C34.759,31.9575 34.3664,32.995 33.8336,34.0046C33.7494,34.0887 33.8336,34.2289 33.9177,34.313C34.3103,34.4813 34.787,34.313 35.1796,34.2289C35.8807,33.668 37.0024,33.9204 37.8717,33.612C37.8717,33.6961 38.0399,33.6961 37.9558,33.8363C37.5632,34.313 37.3389,34.8739 37.2547,35.4908C36.778,36.0516 35.9928,36.5284 35.9928,37.3136C36.1611,37.622 36.3854,37.3136 36.6098,37.3136C36.778,37.3136 36.8341,37.4818 36.778,37.622C36.6098,38.0146 36.2172,38.2389 36.2172,38.7157C36.3854,39.1924 36.2172,39.9776 36.8622,40.1458C38.3484,40.3702 39.4701,39.1924 40.9563,39.2765C42.1341,39.585 43.0876,39.0522 43.8727,38.1829C44.0971,38.0987 44.2653,38.267 44.4336,38.267C45.2188,39.1363 46.2563,39.6972 47.35,39.8374C47.6585,39.9215 48.1352,39.9215 48.4436,39.8374C48.5278,39.7532 48.4436,39.613 48.3595,39.5289C47.5743,39.2204 46.7891,38.7437 46.1442,38.0427C45.8357,37.0892 45.359,36.1358 44.6579,35.3506C44.5738,35.2665 44.5738,35.1823 44.6579,35.1262C45.4431,35.2945 46.0881,36.0797 46.4807,36.7807C47.1257,37.7342 48.0511,38.6035 49.313,38.4352C49.4812,38.3511 49.7056,38.4352 49.6214,38.2109C47.7145,37.6501 47.4902,35.603 46.004,34.5093C45.3029,32.7707 44.6579,30.9479 44.3495,29.0691C44.2653,27.3305 43.3119,25.9003 42.2182,24.6384C40.4796,22.0305 37.7875,20.5442 35.6002,18.6373L34.8992,18.2447C34.5907,18.0765 34.2542,17.9363 33.9457,17.8521C36.6098,13.7299 40.7881,10.6453 45.7516,9.46748L45.7516,15.8611C45.4431,15.6929 45.2749,15.6929 45.0505,15.6929C42.751,15.6929 40.7881,17.8241 40.7881,19.1701C40.7881,20.1236 41.4891,20.6564 42.5267,20.6564C43.6204,20.6564 44.9664,20.0955 45.9198,19.086C46.705,18.3008 46.9574,17.4315 46.9574,15.9172L46.9574,9.15901C47.995,8.99076 49.0045,8.93468 50.0421,8.93468C52.7341,8.93468 55.314,9.49552 57.6976,10.505L57.6976,13.0289C57.3892,12.8606 57.2209,12.8606 56.9966,12.8606C54.6971,12.8606 52.7341,14.9918 52.7341,16.3379C52.7341,17.2913 53.5193,17.8241 54.4728,17.8241C55.5664,17.8241 56.9124,17.2633 57.8659,16.2537C58.6511,15.4685 58.9035,14.5992 58.9035,13.0849L58.9035,11.0379C62.0722,12.6924 64.7363,15.2162 66.559,18.385C64.1193,20.2918 61.4273,21.694 59.1558,23.9093C57.5855,25.3395 56.8003,27.1342 56.2394,29.0411C55.0616,32.3501 54.8093,36.3882 51.2759,38.4352C51.2759,38.5194 51.2759,38.6035 51.3601,38.6596C52.1452,38.8278 53.0146,38.6596 53.5754,37.9585C54.1362,37.0892 54.7532,36.304 55.4823,35.603L55.6505,35.603C55.959,35.6871 55.7347,35.9114 55.7347,36.0797C54.6971,37.1173 54.641,38.6035 53.2109,39.3887C53.0426,39.5569 52.65,39.7813 52.9024,39.9495C54.4728,40.1178 55.5945,38.912 56.6881,37.9866L56.9124,37.9866C57.5294,38.3792 58.0061,39.1643 58.8193,39.0241C60.4738,38.5474 61.5675,39.585 62.8294,40.0617C63.222,40.23 63.5304,39.8934 63.7828,39.6691C64.3437,39.2765 64.0913,38.5755 64.0072,38.0146L64.0913,37.9305C64.3156,37.9305 64.7082,38.1548 64.8765,37.8464C64.9606,37.1453 64.3156,36.5844 64.0072,35.9395C63.8389,34.7617 62.4368,34.0326 62.2685,32.8548C62.3527,32.7707 62.3527,32.6866 62.4368,32.6866C62.9976,32.995 63.4744,33.5559 64.0072,33.8643C64.8765,34.2569 65.8299,34.2569 66.8394,34.3411C67.0077,34.3411 67.0077,34.1728 67.0077,34.0326C66.4468,32.8548 66.0543,31.677 66.1384,30.2469C66.2225,29.8543 66.0543,29.1532 66.531,28.985C66.6992,28.985 66.6992,29.1532 66.7553,29.2093C66.8394,30.4712 66.8394,31.8172 67.3722,32.8268C67.6807,33.612 68.4659,34.0046 69.1109,34.4813C69.4193,34.7056 69.5035,35.0982 69.3352,35.3506M41.7415,30.9199C41.5733,30.8358 41.3489,30.8358 41.1807,31.004L40.6198,31.7051C40.3114,31.5368 40.4516,31.2284 40.4516,31.0881C40.6759,30.5273 40.9283,30.0506 41.1526,29.5178C41.2368,29.3495 41.4611,29.4336 41.6294,29.4336C42.1902,29.8262 42.3304,30.4712 42.8913,30.9199C43.368,31.5368 43.5923,32.4061 43.1997,33.1352C43.1156,33.1352 42.9754,33.3035 42.8913,33.1352C42.9193,32.1818 42.4426,31.3966 41.7415,30.9199M40.4796,36.8368C40.7881,36.6125 41.0965,36.2199 41.5733,36.3601L41.6574,36.6686C41.7415,36.977 41.5733,37.1453 41.4891,37.3696C41.0965,37.4538 40.704,37.594 40.3114,37.5379C40.1712,37.2294 40.3955,37.0892 40.4796,36.8368M60.4458,31.4807C60.3617,31.3966 60.3617,31.2564 60.2214,31.1723C59.6606,31.004 59.268,31.4807 58.8754,31.7892C58.2585,32.1818 58.0061,32.8268 57.8378,33.4437C57.7537,33.5278 57.6696,33.5278 57.6135,33.5278C57.305,33.2194 57.6135,32.8268 57.6135,32.4342C57.922,31.3405 59.1839,30.6956 59.8288,29.686C60.4458,29.686 60.5299,30.3871 60.8664,30.7797C60.9505,31.0881 61.3431,31.4807 60.9505,31.8172C60.7542,31.7892 60.5019,31.649 60.4458,31.4807M60.5019,37.4818C60.2775,37.5659 59.941,37.4818 59.7167,37.4818C59.4082,37.3136 59.4082,36.921 59.3241,36.6966C59.4082,36.6125 59.3241,36.3882 59.4923,36.3882C59.8849,36.3882 60.1934,36.5564 60.4458,36.8649C60.5019,37.0051 60.6701,37.2294 60.5019,37.4818M29.5992,39.2204C29.6833,39.0522 29.5151,38.912 29.4309,38.8278C29.2627,38.4352 29.2066,38.0427 28.9542,37.7342C28.4775,37.7342 27.9166,37.7342 27.468,37.8183L27.468,37.7342C27.2997,37.8183 27.1595,37.7342 26.9912,37.8183C26.9071,37.9024 26.9071,37.9866 26.9071,38.0427C27.524,38.4352 27.6923,39.1363 28.0008,39.6972C28.6457,40.0056 29.1225,39.5289 29.5992,39.2204M72.4199,37.9585C72.1955,37.9585 72.0273,37.9585 71.859,37.9585C71.6347,37.8744 71.2982,37.9585 70.9897,37.8744C70.6812,38.267 70.513,38.6596 70.5971,39.1363C70.7654,39.4448 71.158,39.4448 71.3823,39.613C71.6908,39.613 72.0834,39.7813 72.2516,39.5289C72.4199,39.0522 72.5601,38.5755 72.7283,38.0987C72.5881,37.9585 72.504,37.9585 72.4199,37.9585M2.53829,41.0151C2.93089,41.1834 3.23935,40.931 3.57586,40.6226C3.8002,40.23 4.13671,39.9215 4.19279,39.5289C4.10867,39.3046 3.71607,38.9681 3.49173,39.1363C3.09914,39.7532 1.83723,39.7532 2.22983,40.7067C2.28591,40.8749 2.37004,41.0151 2.53829,41.0151M96.7046,39.1363L96.4802,39.1363C96.312,39.3046 95.9194,39.3606 96.0035,39.6972C96.3961,40.1739 96.6485,41.0432 97.3495,41.1273C97.5739,41.0432 97.9104,40.9591 97.9665,40.6506C97.9665,40.4823 98.1347,40.3421 97.9665,40.0897ZM1.10813,41.2675C0.547285,41.576 0.631413,42.1368 0.631413,42.7538C0.631413,43.0622 0.238819,43.3146 0.238819,43.7072C0.631413,43.8755 0.939879,44.0157 1.4166,44.0998C1.64094,43.3987 1.80919,42.6696 1.97745,41.8845L1.36051,41.2675C1.27639,41.1834 1.19226,41.2675 1.10813,41.2675M99.3966,41.8003C99.2284,41.576 99.0882,41.4077 98.8358,41.2395C98.4432,41.0712 98.2189,41.4638 98.0506,41.7162C97.9665,42.2771 98.2749,42.8099 98.3591,43.2866C98.4432,43.5109 98.3591,43.9035 98.5834,44.0718L99.6771,43.7633L99.7612,43.4548C99.3125,43.0062 99.5649,42.2771 99.3966,41.8003" class="bg-color-primary--svg" style="fill: white"> </path></g> </g> </svg>