<?xml version="1.0" encoding="utf-8"?>
<!-- Generator: Adobe Illustrator 18.1.0, SVG Export Plug-In . SVG Version: 6.00 Build 0)  -->
<svg version="1.1" id="Layer_1" xmlns="http://www.w3.org/2000/svg" xmlns:xlink="http://www.w3.org/1999/xlink" x="0px" y="0px"
	 viewBox="-1 315 608 164" enable-background="new -1 315 608 164" xml:space="preserve">
<path fill="#FFFFFF" stroke="#FFFFFF" stroke-width="2" stroke-miterlimit="10" d="M37,472c-2-1-3-2-4-3c-1-3,0-8,2-11c1-2,2-4,2-24
	v-21l-3-4c-2-3-3-4-2-9c0-5,0-6-9-24c-9-17-10-19-14-21s-6-5-5-10c1-4,4-6,9-6c3,0,4,0,7,4c2,3,4,4,10,5c5,2,7,2,9,1c6-2,12,1,12,7
	c-1,5,1,4,4-4c3-6,3-7,2-10c-3-8,1-14,8-14c5,0,8,2,9,7c1,4,8,9,14,8c5-1,8,2,8,7c1,4,0,5-3,7s-4,4-4,5c0,0-2,4-4,8
	c-8,17-11,25-10,30c0,4-1,6-2,8s-1,5-1,18c-1,14,0,16,2,19c1,3,1,5,1,7c-1,4-5,7-10,6c-4-1-15,6-15,8c0,3-4,6-7,7
	C41,473,39,473,37,472z M45,470c2-2,4-4,4-5s2-3,5-5c5-2,7-3,11-3c3,0,5,0,7-2c3-3,3-5,1-9c-2-3-2-5-2-20c0-14,0-17,1-19s2-4,2-7
	c-1-4,0-8,5-19c3-7,6-15,7-17c1-3,4-6,6-8c4-3,5-7,1-10c-2-2-3-3-6-2c-5,1-11-2-13-8c-4-8-10-10-15-5c-3,3-4,9-2,10s2,5-1,11
	c-1,3-2,7-3,8c-1,3-4,1-3-3c0-2-1-4-3-6s-3-2-7-1c-3,1-5,1-11-1c-6-1-8-2-10-6c-4-4-8-5-12-1s-3,9,3,12c4,2,5,4,14,21
	c9,19,10,19,9,25c-1,4,0,5,2,8s2,4,2,26c1,21,1,23-1,25c-4,5-3,10,2,12C41,473,42,473,45,470z M164,473c-1,0-3-2-5-4c-3-2-4-3-20-5
	c-13-1-17-1-19-1c-3,2-9,2-11-1c-2-2-2-8,0-10c1-2,2-5,2-21c0-19-1-19-3-21s-2-4-2-7s0-5,2-6c2-3,3-3,3-20s-1-17-3-20
	c-3-4-3-10,0-13s8-3,12-1c2,2,3,2,19,0l16-3l3-3c3-4,4-4,8-4s5,0,7,3c1,1,3,3,3,4c0,4,3,6,7,5s5,0,7,2c3,3,3,5,2,9c-2,4-6,5-11,3
	c-3-1-7,0-18,1c-18,2-18,1-17,22v16h5c4,1,5,0,8-2c5-3,9-3,13,0c2,2,4,2,5,2c0,0,2-1,4-2c5-3,12,0,12,6c0,7-8,10-14,6c-2-2-3-2-5,1
	c-2,2-5,3-7,3c-4,1-5,0-8-2c-2-3-4-3-7-3c-2,0-5,0-5,1c-1,1-1,6-1,17c0,20-1,19,17,21c13,1,14,1,16,0c1-1,3-2,6-2c5,0,8,3,8,8
	s-3,7-9,8c-5,0-8,2-9,7c-1,2-2,4-3,4C170,473,165,474,164,473z M171,470c1-1,3-4,3-5c1-4,4-6,9-6c8,0,11-8,6-12c-3-3-6-3-9,0
	c-2,1-3,1-17,0c-11-1-15-2-16-3c-2-1-2-4-2-19c-1-12,0-17,1-18c0-1,3-1,6-1c4,0,6,0,8,3c2,1,4,3,6,3c1,0,4-2,6-3c4-4,4-4,9-2
	c3,2,4,2,7,1c4-2,5-7,1-10c-2-3-5-3-9,0c-3,2-6,2-8-1c-4-3-8-3-12,0c-2,2-4,3-9,2h-6v-17c-1-22-1-21,17-23c13-2,17-2,22,0
	c2,1,3,0,5-2c3-3,3-6,0-9c-2-2-3-3-6-2c-5,1-8-1-8-5c0-3-6-7-9-7c-2,0-4,1-6,3c-4,4-4,4-19,6c-17,3-20,3-23,1c-7-5-15,5-9,11
	c2,3,2,4,2,21l1,18l-3,3c-3,4-3,8,0,12l3,2v20c0,18-1,20-2,22c-3,3-3,5,0,8c1,2,3,3,5,3s4-1,4-2c1-1,5-1,25,2c12,2,13,2,17,5
	C165,473,168,473,171,470z M257,473c-1-1-3-2-5-4c-3-2-4-2-20-5c-14-1-17-2-19,0c-3,1-8,1-10-1c-4-3-4-6-1-11c2-5,2-5,1-48v-44l-2-4
	c-5-6-2-15,5-14c5,0,7,1,9,4c2,4,9,7,16,6s11,1,11,6c0,2-1,5-2,6c-1,2-1,8-1,35c0,38,0,43,3,45c1,1,8,2,15,2c12,1,13,1,15,0
	c2-3,9-2,11,0c2,1,3,3,3,6c0,5-3,7-9,8c-5,0-8,2-9,7c-1,3-3,4-5,5C259,474,259,474,257,473z M262,471c3-1,6-5,6-8c0-2,4-4,8-4
	c8,0,11-8,6-12c-3-3-6-3-9,0c-2,2-3,2-16,0c-17-1-18-2-19-8c0-3,0-21,0-39c0-29,0-35,1-37c4-5,0-11-8-10c-6,1-15-2-17-6
	c-3-5-9-6-12-2c-3,3-3,6,0,10l2,4v45l1,45l-3,4c-2,4-1,7,3,10c2,2,3,2,6,0c4-2,4-2,23,1c15,2,16,2,20,5C258,473,258,473,262,471z
	 M349,473c-1-1-3-2-5-4c-3-2-4-2-20-5c-14-1-17-2-19,0c-3,1-8,1-10-1c-4-3-4-6-1-11c2-5,2-5,1-48v-44l-2-4c-5-6-2-15,5-14
	c5,0,7,1,9,4c2,4,9,7,16,6s11,1,11,6c0,2-1,5-2,6c-1,2-1,8-1,35c0,38,0,43,3,45c1,1,8,2,15,2c12,1,13,1,15,0c2-3,9-2,11,0
	c2,1,3,3,3,6c0,5-3,7-9,8c-5,0-8,2-9,7c-1,3-3,4-5,5C351,474,351,474,349,473z M354,471c3-1,6-5,6-8c0-2,4-4,8-4c8,0,11-8,6-12
	c-3-3-6-3-9,0c-2,2-3,2-16,0c-17-1-18-2-19-8c0-3,0-21,0-39c0-29,0-35,1-37c4-5,0-11-8-10c-6,1-15-2-17-6c-3-5-9-6-12-2
	c-3,3-3,6,0,10l2,4v45l1,45l-3,4c-2,4-1,7,3,10c2,2,3,2,6,0c4-2,4-2,23,1c15,2,16,2,20,5C350,473,350,473,354,471z M443,473
	c-1-1-3-2-5-4c-3-2-4-3-19-5c-14-2-17-2-20-1c-5,2-8,2-10,0c-3-3-3-9-1-13c2-2,2-4,2-46c-1-43-1-45-3-47c-3-3-3-9-1-13c3-3,7-4,12-1
	l4,2l17-3l16-2l3-4c2-3,3-3,7-3c5,0,10,3,10,6c0,4,2,6,7,6s6,0,7,2c3,3,3,5,1,11c-2,4-2,7-2,45c-1,38-1,41,1,43c3,2,3,9,0,11
	c-1,2-3,3-6,3c-5,0-9,3-9,6C454,470,448,474,443,473z M450,469c1-1,3-3,3-5c1-3,4-5,9-5c4,0,5-1,6-3c3-3,3-6,0-9c-2-2-2-3-1-45
	c0-39,0-43,2-46s2-5-1-8c-1-2-3-3-6-3c-6,0-7,0-8-5c-3-7-10-9-15-3l-3,3l-17,3l-18,3l-3-2c-5-3-6-3-9,0c-4,3-4,7-1,11l2,4l1,45
	c0,42,0,44-2,47c-4,6,0,13,6,12c2,0,4-1,6-1s11,0,19,2c15,2,16,2,19,4C444,473,446,473,450,469z M533,470c-1-2-2-4-1-9c1-7,1-7-2-6
	c-1,1-4,1-7,1c-6-1-13,2-15,6s-8,6-11,3c-3-2-3-3-3-10c0-4-3-28-5-52c-6-45-6-45-9-48c-4-5-3-13,2-15s8-1,12,4s13,8,18,6
	c3-1,3-1,2-3c-2-7,1-13,7-14c5-1,9,1,11,7s4,7,9,7c6,0,9,3,9,8c0,2-1,4-2,5s-1,4,1,12c1,10,3,14,3,7c0-1,1-9,2-16l3-14l-3-4
	c-3-8-1-14,7-15c6-1,10,3,11,9c1,5,1,5,4,6c6,1,8,3,8,7c0,3-1,5-3,7c-2,3-3,5-10,44c-5,32-6,41-6,43c4,7,0,14-8,14c-5,0-8,2-8,6
	s-4,6-9,6C536,472,534,471,533,470z M546,469c1-1,2-3,2-4c0,0,0-2,2-4c1-2,2-2,6-2s5-1,7-3c3-2,3-4,1-9c0-2,1-10,6-44
	c7-40,8-42,11-45c3-4,3-5,2-8c-1-2-6-4-9-4c-2,0-2-1-3-5c-1-10-9-13-15-8c-3,4-3,6,0,11l2,4l-3,14c-1,8-2,16-2,18c0,3-1,4-2,4
	c-2,0-2-1-2-3s-1-7-2-11c-1-7-1-9,1-12c1-3,1-4,1-5c-2-4-6-6-9-5c-4,1-8-2-8-5c0-2-3-7-5-8c-4-2-6-2-10,1c-2,2-3,3-2,6c0,2,1,5,1,6
	c1,2,0,2-4,3c-3,1-5,1-11-1c-4-2-7-4-9-6c-3-4-6-5-9-3c-5,3-6,8-2,13c3,2,3,3,9,50c3,29,5,50,5,52c-1,4,0,5,2,7c3,4,7,3,11-3
	c2-3,10-6,15-5c2,0,4,0,6-1c4-2,5-2,4,6c-1,6,0,7,1,9C536,471,543,471,546,469z M45,456c0-1,0-11,0-23v-23l2-2c2-2,3-3,8-3
	c9,1,9,1,9,21c0,16,0,17-2,20c-2,2-2,3-2,4s-3,3-5,4C50,456,46,457,45,456z M53,453c3-1,6-3,6-5c0-1,1-3,2-4s2-5,2-17
	c1-15,1-16-1-18c-3-4-11-4-14-1l-2,3v22C46,458,45,457,53,453z M49,398c-1-1-2-2-1-5c1-5,3-10,5-10c1,0,9,12,9,14
	C62,400,52,400,49,398z M60,398c0-1-1-4-3-8c-4-8-5-8-8,1c-1,3-1,5,0,6C51,398,59,399,60,398z M65,390c-1,0-3-5-6-9l-4-8l5-13
	c3-6,5-13,6-14c2-2,6-2,10,0c9,5,9,7,1,25c-4,9-7,17-8,18C68,392,66,392,65,390z M74,376c3-8,6-15,7-17c1-3,2-4,1-6c-2-3-6-6-10-7
	s-6,2-11,15l-5,11l5,8c5,10,6,11,7,10C68,389,71,383,74,376z M30,375c-9-16-10-20-9-21c0-1,4,0,7,1c5,1,8,2,10,5c2,2,4,3,5,3
	c2,1,5,5,5,8c0,1-2,6-4,10C40,393,39,393,30,375z M43,381c2-4,4-8,4-9c0-3-4-7-6-8c-1,0-4-2-5-4s-4-3-8-4c-3-1-6-2-6-1
	c-1,0,2,5,11,22c3,6,6,12,6,12C40,389,42,385,43,381z M144,458c-10-1-11-1-11-3s3-3,7-1c3,0,4,0,6-1s4-1,14-1c7,1,13,2,13,2s0,1,0,2
	s-1,2-5,1c-2,0-4,0-6,1C159,460,157,460,144,458z M161,457c3-1,5-1,7-1s4,0,4,0c1-2-3-2-14-3c-7,0-9,0-12,1c-2,1-3,1-6,1
	c-4-1-9,0-5,1c1,1,14,2,20,2C157,458,160,458,161,457z M119,451c0-1,0-10-1-21c0-16,0-21,1-22s4-1,11-1h9l-1,18c0,21,0,21-9,24
	C122,452,120,452,119,451z M128,448c9-3,9-3,9-23l1-17h-8c-6,0-9,0-10,1s-1,6-1,21c1,10,1,19,1,20C121,451,122,451,128,448z
	 M122,399c-4-1-5-5-4-24v-18h3c1,0,5,0,8,1c4,1,6,2,7,5c2,3,3,5,3,20c0,16-1,16-3,17C133,401,124,401,122,399z M136,399
	c1-1,2-3,2-16c0-14-1-16-3-19c-2-4-6-6-12-6h-4v18l-1,19l3,2c2,2,3,3,8,3C132,400,135,399,136,399z M146,354c-1-1-2-2-6-1
	c-5,1-9,0-9-2c0-1,8-2,18-2c2,0,5-1,5-1c1-2,5-2,6,0c1,1,2,2,5,2c9-1,10-1,10,1c0,1-3,2-9,2c-3,0-8,1-11,2C147,357,147,357,146,354z
	 M157,353c1,0,3,0,4,0s3-1,3-1c0-1-1-1-2-1c-2,0-3-1-3-2c-1-2-2-2-3-1c-2,1-5,2-8,2c-8,0-16,1-15,2c0,0,3,0,6,0c5-1,6,0,7,1
	C148,355,153,355,157,353z M172,352c1-1,2-2,1-2c0-1-8,1-8,2S171,353,172,352z M235,458c-9-1-11-1-11-3c-1-2,5-3,9-1c3,0,4,0,6-1
	s4-2,15-1c6,1,12,2,12,2s0,1,0,2s-1,2-5,1c-2,0-4,0-6,1C252,460,250,460,235,458z M254,457c3-1,5-1,7-1s4,0,4,0c1-2-3-2-14-3
	c-7,0-9,0-11,1c-3,1-4,1-7,1c-2-1-5-1-6-1c-4,2-4,2,8,3C249,459,251,459,254,457z M211,444c0-4,0-25,0-47c0-34,0-41,1-41s4,0,8,1
	c12,4,11,2,12,46c1,37,1,38-1,41s-4,4-8,5s-7,2-9,2S212,450,211,444z M222,448c3-1,6-2,7-5l3-3l-1-36c-1-35-1-37-3-40c-1-2-2-3-3-4
	c-2-1-12-4-13-3s-1,76,0,86C213,450,213,451,222,448z M330,458c-11-1-12-1-12-3s3-3,6-2c2,1,5,1,8,0c2-1,6-1,11-1c13,1,15,1,15,4
	c0,1-1,2-5,1c-2,0-4,0-6,1C344,460,341,460,330,458z M346,457c3-1,5-1,7-1s4,0,4,0c0-3-20-4-25-2c-3,1-5,1-8,0s-8,1-4,2
	c1,1,15,2,20,2C342,458,345,458,346,457z M304,450c-1,0-1-22-1-47c-1-41,0-47,1-47s5,0,8,1c11,4,11,2,12,46c1,37,1,38-1,41
	s-4,4-10,5C305,452,305,452,304,450z M313,449c4-2,7-3,8-6l3-3l-1-36c-1-35-1-37-3-40c-2-4-8-6-13-7h-3v45c0,40,0,49,2,49
	C306,451,309,450,313,449z M423,458c-12-2-12-2-12-4s0-2,6-1c5,0,8,0,8,0c1-2,12-2,14-1c1,1,2,2,1,4c0,3,0,3-4,3
	C434,459,428,459,423,458z M439,456c0-3,0-3-6-3c-3,0-6,0-7,1c-1,0-4,1-8,0c-5,0-7,0-6,0c1,2,18,4,24,4C439,458,439,458,439,456z
	 M397,450c0,0,0-21,0-47c-1-53-2-49,9-46c5,1,7,3,9,5l3,3v38l1,38l-2,3c-2,2-4,4-8,5C404,450,398,451,397,450z M408,448c4-1,6-2,7-5
	l3-3l-1-37v-37l-3-3c-2-3-4-4-8-5c-10-3-9-7-8,45c0,25,0,46,0,46C399,450,404,449,408,448z M449,447c-1-1-1-84,0-87c1-2,2-2,4-3
	c8-1,8-3,7,43c0,31,0,43-1,45c-1,1-2,2-5,2C452,447,450,447,449,447z M458,444c1-2,1-8,1-43c1-28,0-41-1-42c-1-2-7-1-8,1
	c-1,1-1,85,0,86C452,447,456,446,458,444z M432,446c-8-1-8,1-8-43c0-45-1-42,11-43l7-1l-1,44v43h-2C437,446,434,446,432,446z
	 M440,403l1-43l-6,1c-5,0-7,1-8,3l-3,3l1,37c0,41,0,40,7,41C441,446,440,450,440,403z M425,354c-1-1-3-1-8-1c-7,1-7,1-7-1s0-2,8-3
	c15-1,22-1,23,1c2,2,0,4-8,4C428,355,426,354,425,354z M437,353c3-1,3-3,1-4s-27,1-27,3c0,0,3,0,7,0c5-1,7,0,8,0
	C427,354,433,354,437,353z M451,351c0-2,0-2,2-2c1,0,2,0,2,2c0,1-1,2-2,2C451,353,451,352,451,351z M454,351c0-1-1-1-1-1
	c-1,0-1,0-1,1c0,0,0,1,1,1L454,351z M547,450c0-1,1-6,1-10c1-4,1-6,2-6c4,0,2,18-2,19C547,454,546,453,547,450z M550,449
	c2-4,2-13,1-14c-1,0-2,2-2,6c0,3-1,7-1,9C547,454,548,453,550,449z M508,448c0-2,1-10,3-18c1-9,3-18,3-21c0-4,0-4,1-4c2,0,2,1,3,9
	c0,6,1,14,2,19c2,11,1,14-5,17C509,452,508,452,508,448z M514,449c6-3,7-5,5-16c-1-5-2-13-2-18c-1-10-2-13-2-5c0,2-2,11-3,20
	c-4,15-4,21-3,21S512,450,514,449z M501,436c-1-1-2-10-3-20c-2-11-4-29-5-40s-2-20-2-21c1-2,3-2,10,1c4,1,6,3,8,6c5,7,4,12-1,42
	C502,436,502,437,501,436z M503,431c0-2,2-14,4-28c5-29,6-34,1-41c-3-3-4-4-9-6c-3-1-6-2-6-1c-1,1-1,8,1,21c1,11,3,29,5,39
	c1,11,2,19,3,19C502,434,503,432,503,431z M538,432c-2-13-2-23,0-33c1-5,2-12,2-14c0-3,0-4,2-4c1-1,1,0,1,2s1,8,2,14c2,11,2,12,0,24
	c-3,15-3,16-5,16C539,437,539,435,538,432z M543,421l3-12l-2-14c-2-13-3-17-4-9c0,2,0,8-1,13c-1,6-2,12-1,19c1,12,2,18,2,17
	C541,434,542,428,543,421z M556,423c-2-9-2-17,1-31c3-15,8-41,8-42c0,0,0,0,2,0c3,0,5,8,3,15c0,3-3,18-5,33c-4,22-5,28-7,28
	C557,426,557,426,556,423z M564,397c2-16,5-30,5-33c1-3,1-5,0-9c-2-8-3-6-7,15c-1,4-3,14-4,22c-2,11-3,16-2,22c1,8,1,12,3,11
	C559,424,561,412,564,397z M522,400c-3-24-2-32,1-32c1,0,2,0,2,4c0,3,0,12,1,22c3,22,3,29,0,29C525,423,524,415,522,400z M527,415
	c0-3,0-12-2-21c-1-10-1-19-1-21c-1-6-2-6-3,0c0,6,5,49,6,48C527,421,527,418,527,415z M531,370c-2-18-2-18,1-17c1,0,3,1,4,3
	c2,4,2,5,1,13c-1,6-2,11-2,11c0,1-1,2-2,2C532,383,532,380,531,370z M535,377c0-1,0-6,1-9c1-6,0-7-1-10c-2-4-3-5-4-4s2,27,3,27
	C534,381,535,379,535,377z"/>
</svg>
